<svg width="29" height="29" viewBox="0 0 29 29" fill="none" xmlns="http://www.w3.org/2000/svg">
<path d="M4.83333 3.625H24.1667C24.4871 3.625 24.7945 3.75231 25.0211 3.97891C25.2477 4.20552 25.375 4.51286 25.375 4.83333V24.1667C25.375 24.4871 25.2477 24.7945 25.0211 25.0211C24.7945 25.2477 24.4871 25.375 24.1667 25.375H4.83333C4.51286 25.375 4.20552 25.2477 3.97891 25.0211C3.75231 24.7945 3.625 24.4871 3.625 24.1667V4.83333C3.625 4.51286 3.75231 4.20552 3.97891 3.97891C4.20552 3.75231 4.51286 3.625 4.83333 3.625ZM6.04167 6.04167V22.9583H22.9583V6.04167H6.04167ZM13.2953 19.3333L8.16833 14.2064L9.87692 12.4978L13.2953 15.9162L20.1296 9.08063L21.8394 10.7892L13.2953 19.3333Z" fill="#FFFBFB"/>
</svg>
