<svg width="50" height="30" viewBox="0 0 50 30" fill="none" xmlns="http://www.w3.org/2000/svg">
<g clip-path="url(#clip0_25_353)">
<path d="M16.9259 19.8987H8.01771C7.72235 19.8987 7.43909 20.016 7.23024 20.2248C7.02139 20.4337 6.90405 20.717 6.90405 21.0123C6.90405 21.3077 7.02139 21.5909 7.23024 21.7998C7.43909 22.0086 7.72235 22.126 8.01771 22.126H16.9259C17.2213 22.126 17.5045 22.0086 17.7134 21.7998C17.9222 21.5909 18.0396 21.3077 18.0396 21.0123C18.0396 20.717 17.9222 20.4337 17.7134 20.2248C17.5045 20.016 17.2213 19.8987 16.9259 19.8987Z" fill="white"/>
<path d="M13.5855 14.3318H4.67725C4.38189 14.3318 4.09863 14.4492 3.88978 14.658C3.68093 14.8669 3.5636 15.1501 3.5636 15.4455C3.5636 15.7409 3.68093 16.0241 3.88978 16.233C4.09863 16.4418 4.38189 16.5591 4.67725 16.5591H13.5855C13.8808 16.5591 14.1641 16.4418 14.3729 16.233C14.5818 16.0241 14.6991 15.7409 14.6991 15.4455C14.6991 15.1501 14.5818 14.8669 14.3729 14.658C14.1641 14.4492 13.8808 14.3318 13.5855 14.3318Z" fill="white"/>
<path d="M10.245 8.7641H1.33679C1.04144 8.7641 0.758175 8.88142 0.549325 9.09027C0.340475 9.29912 0.223145 9.58239 0.223145 9.87775C0.223145 10.1731 0.340475 10.4564 0.549325 10.6652C0.758175 10.8741 1.04144 10.9914 1.33679 10.9914H10.245C10.5404 10.9914 10.8236 10.8741 11.0325 10.6652C11.2413 10.4564 11.3587 10.1731 11.3587 9.87775C11.3587 9.58239 11.2413 9.29912 11.0325 9.09027C10.8236 8.88142 10.5404 8.7641 10.245 8.7641Z" fill="white"/>
<path d="M44.5388 5.86872C44.3498 5.64933 44.0876 5.50586 43.801 5.46485C43.5143 5.42385 43.2225 5.4881 42.9796 5.64571L31.1769 14.6649C30.5779 15.0992 29.857 15.333 29.1171 15.333C28.3773 15.333 27.6564 15.0992 27.0573 14.6649L15.2547 5.64571C15.1377 5.55797 15.0047 5.49413 14.863 5.45783C14.7214 5.42154 14.574 5.41348 14.4293 5.43415C14.2845 5.45481 14.1453 5.50378 14.0195 5.57826C13.8936 5.65274 13.7837 5.75129 13.696 5.86824C13.6083 5.9852 13.5444 6.11828 13.5081 6.25991C13.4718 6.40154 13.4638 6.54894 13.4844 6.69368C13.5051 6.83842 13.5541 6.97768 13.6286 7.10349C13.703 7.22931 13.8016 7.33921 13.9185 7.42695L25.8302 16.4472C26.7908 17.1758 27.965 17.5671 29.1707 17.5603C30.379 17.5845 31.5588 17.1914 32.5111 16.4472L44.3138 7.42794C44.5335 7.23919 44.6773 6.97721 44.7187 6.69053C44.7601 6.40385 44.6962 6.11189 44.5388 5.86872Z" fill="white"/>
<path d="M45.8759 0.97004H10.245C9.94964 0.97004 9.66638 1.08738 9.45753 1.29623C9.24868 1.50508 9.13135 1.78833 9.13135 2.08369C9.13135 2.37905 9.24868 2.66231 9.45753 2.87116C9.66638 3.08001 9.94964 3.19735 10.245 3.19735H45.8759C46.0244 3.18847 46.1731 3.21118 46.3122 3.26398C46.4513 3.31678 46.5776 3.39847 46.6828 3.50366C46.7879 3.60885 46.8696 3.73515 46.9224 3.87423C46.9752 4.01331 46.998 4.162 46.9891 4.3105V26.5796C46.998 26.7281 46.9752 26.8768 46.9224 27.0159C46.8696 27.1549 46.7879 27.2812 46.6828 27.3864C46.5776 27.4916 46.4513 27.5733 46.3122 27.6261C46.1731 27.6789 46.0244 27.7016 45.8759 27.6927H10.245C9.94964 27.6927 9.66638 27.8101 9.45753 28.0189C9.24868 28.2278 9.13135 28.511 9.13135 28.8064C9.13135 29.1017 9.24868 29.385 9.45753 29.5939C9.66638 29.8027 9.94964 29.92 10.245 29.92H45.8759C46.3168 29.9282 46.7549 29.8473 47.1638 29.6823C47.5728 29.5173 47.9443 29.2716 48.2561 28.9598C48.5679 28.6479 48.8137 28.2764 48.9787 27.8675C49.1437 27.4585 49.2245 27.0205 49.2164 26.5796V4.3105C49.2245 3.86959 49.1437 3.43156 48.9787 3.0226C48.8137 2.61365 48.5679 2.24215 48.2561 1.93033C47.9443 1.6185 47.5728 1.37275 47.1638 1.20775C46.7549 1.04276 46.3168 0.961909 45.8759 0.97004Z" fill="white"/>
<path d="M44.4278 23.5731L37.7469 16.8922C37.5401 16.6855 37.2597 16.5693 36.9673 16.5693C36.6748 16.5693 36.3944 16.6855 36.1877 16.8922C35.9809 17.099 35.8647 17.3794 35.8647 17.6718C35.8647 17.9642 35.9809 18.2446 36.1877 18.4514L42.8686 25.1323C42.9694 25.2374 43.0905 25.321 43.2244 25.3781C43.3584 25.4352 43.5026 25.4646 43.6482 25.4646C43.7938 25.4646 43.9379 25.4352 44.0719 25.3781C44.2059 25.321 44.3269 25.2374 44.4278 25.1323C44.5328 25.0315 44.6164 24.9104 44.6735 24.7765C44.7306 24.6425 44.7601 24.4984 44.7601 24.3527C44.7601 24.2071 44.7306 24.063 44.6735 23.929C44.6164 23.795 44.5328 23.674 44.4278 23.5731Z" fill="white"/>
</g>
<defs>
<clipPath id="clip0_25_353">
<rect width="48.9928" height="28.95" fill="white" transform="translate(0.223633 0.970032)"/>
</clipPath>
</defs>
</svg>
