<svg width="34" height="50" viewBox="0 0 34 50" fill="none" xmlns="http://www.w3.org/2000/svg">
<g clip-path="url(#clip0_25_339)">
<path d="M16.72 0.921753C12.3454 0.926685 8.15144 2.66666 5.05816 5.75994C1.96487 8.85322 0.224903 13.0472 0.219971 17.4218C0.219971 25.5624 5.86349 34.2611 10.5978 41.775C10.6694 41.8925 10.7637 41.9945 10.8751 42.0752C10.9865 42.1559 11.1128 42.2136 11.2468 42.245C11.3807 42.2765 11.5195 42.2809 11.6552 42.2582C11.7908 42.2355 11.9206 42.186 12.037 42.1127C12.1534 42.0394 12.254 41.9436 12.3331 41.831C12.4121 41.7184 12.468 41.5913 12.4974 41.4569C12.5269 41.3225 12.5293 41.1837 12.5046 41.0483C12.4799 40.913 12.4285 40.784 12.3534 40.6687C4.04019 27.474 2.29534 21.6412 2.29534 17.4237C2.29534 13.5979 3.81513 9.92885 6.52036 7.22362C9.2256 4.51838 12.8947 2.9986 16.7205 2.9986C20.5462 2.9986 24.2153 4.51838 26.9206 7.22362C29.6258 9.92885 31.1456 13.5979 31.1456 17.4237C31.1456 30.3409 16.052 48.0718 15.9 48.2689C15.7407 48.4872 15.6728 48.7592 15.7109 49.0268C15.749 49.2944 15.89 49.5366 16.1039 49.7018C16.3179 49.8671 16.5878 49.9423 16.8564 49.9115C17.1249 49.8808 17.3709 49.7464 17.5419 49.5371C18.1823 48.7083 33.221 31.049 33.221 17.4227C33.2163 13.0478 31.4763 8.85346 28.3828 5.75994C25.2892 2.66642 21.0949 0.926426 16.72 0.921753Z" fill="white"/>
<path d="M16.7199 12.1598C16.9895 12.1515 17.2452 12.0386 17.433 11.845C17.6207 11.6514 17.7257 11.3923 17.7257 11.1226C17.7257 10.8529 17.6207 10.5938 17.433 10.4002C17.2452 10.2066 16.9895 10.0937 16.7199 10.0854C15.0659 10.0856 13.4605 10.6448 12.1643 11.6722C10.8681 12.6996 9.95712 14.1349 9.57931 15.7452C9.2015 17.3555 9.379 19.0462 10.083 20.543C10.787 22.0397 11.9762 23.2545 13.4575 23.9903C14.9388 24.7262 16.6254 24.9398 18.2434 24.5964C19.8614 24.2531 21.3158 23.3731 22.3707 22.0991C23.4256 20.8251 24.019 19.232 24.0545 17.5784C24.09 15.9248 23.5657 14.3076 22.5665 12.9895C22.4854 12.8775 22.3828 12.7828 22.2646 12.7109C22.1465 12.6391 22.0151 12.5916 21.8784 12.5713C21.7416 12.5509 21.6021 12.5581 21.4681 12.5924C21.3342 12.6268 21.2084 12.6875 21.0983 12.7711C20.9881 12.8547 20.8958 12.9595 20.8267 13.0793C20.7576 13.1991 20.7132 13.3315 20.696 13.4687C20.6788 13.6059 20.6893 13.7452 20.7267 13.8783C20.7641 14.0115 20.8277 14.1358 20.9138 14.244C21.6101 15.1567 21.9855 16.2738 21.9819 17.4218C21.9819 18.4623 21.6734 19.4795 21.0953 20.3446C20.5172 21.2098 19.6955 21.8841 18.7342 22.2823C17.7729 22.6805 16.7151 22.7847 15.6945 22.5817C14.674 22.3787 13.7366 21.8776 13.0008 21.1419C12.265 20.4061 11.764 19.4687 11.561 18.4481C11.358 17.4276 11.4622 16.3698 11.8604 15.4085C12.2586 14.4471 12.9329 13.6255 13.7981 13.0474C14.6632 12.4693 15.6804 12.1608 16.7209 12.1608L16.7199 12.1598Z" fill="white"/>
</g>
<defs>
<clipPath id="clip0_25_339">
<rect width="33" height="49.0165" fill="white" transform="translate(0.219971 0.921753)"/>
</clipPath>
</defs>
</svg>
