<svg width="28" height="49" viewBox="0 0 28 49" fill="none" xmlns="http://www.w3.org/2000/svg">
<g clip-path="url(#clip0_25_376)">
<path d="M11.206 3.79462C10.9816 3.79578 10.7668 3.88589 10.6087 4.04518C10.4506 4.20448 10.3622 4.41996 10.3628 4.64436C10.3634 4.86877 10.4529 5.08379 10.6118 5.24226C10.7707 5.40074 10.9859 5.48973 11.2103 5.48973C11.4348 5.48973 11.65 5.40074 11.8089 5.24226C11.9678 5.08379 12.0573 4.86877 12.0579 4.64436C12.0585 4.41996 11.9701 4.20448 11.812 4.04518C11.6539 3.88589 11.4391 3.79578 11.2147 3.79462H11.206Z" fill="white"/>
<path d="M12.0321 43.439C12.0321 43.7727 12.1311 44.0989 12.3165 44.3764C12.5019 44.6539 12.7654 44.8701 13.0737 44.9979C13.382 45.1256 13.7213 45.159 14.0486 45.0939C14.3759 45.0288 14.6766 44.8681 14.9125 44.6321C15.1485 44.3961 15.3092 44.0955 15.3743 43.7682C15.4394 43.4408 15.406 43.1016 15.2783 42.7933C15.1506 42.4849 14.9343 42.2214 14.6569 42.036C14.3794 41.8506 14.0531 41.7516 13.7194 41.7516C13.2721 41.7522 12.8432 41.9301 12.5269 42.2464C12.2106 42.5628 12.0326 42.9916 12.0321 43.439Z" fill="white"/>
<path d="M1.06546 36.6897C1.28922 36.6897 1.50381 36.6008 1.66202 36.4426C1.82024 36.2844 1.90912 36.0698 1.90912 35.846V4.63537C1.96549 3.98303 2.25025 3.3715 2.71324 2.9085C3.17624 2.44551 3.78777 2.16075 4.44011 2.10438H22.9997C23.6521 2.16075 24.2636 2.44551 24.7266 2.9085C25.1896 3.3715 25.4743 3.98303 25.5307 4.63537C25.5307 4.85912 25.6196 5.07371 25.7778 5.23193C25.936 5.39015 26.1506 5.47903 26.3744 5.47903C26.5981 5.47903 26.8127 5.39015 26.9709 5.23193C27.1291 5.07371 27.218 4.85912 27.218 4.63537C27.1628 3.53475 26.7005 2.49393 25.921 1.71496C25.1415 0.935998 24.1004 0.474471 22.9997 0.419983H4.44011C3.33898 0.474531 2.29743 0.93647 1.51786 1.71605C0.738282 2.49562 0.27635 3.53716 0.221802 4.6383V35.8489C0.222576 36.0722 0.311802 36.286 0.469936 36.4436C0.62807 36.6012 0.842215 36.6897 1.06546 36.6897Z" fill="white"/>
<path d="M14.5631 3.79462C14.3394 3.79462 14.1248 3.8835 13.9666 4.04172C13.8084 4.19994 13.7195 4.41453 13.7195 4.63828C13.7195 4.86203 13.8084 5.07662 13.9666 5.23484C14.1248 5.39306 14.3394 5.48194 14.5631 5.48194H17.9378C18.1616 5.48194 18.3761 5.39306 18.5344 5.23484C18.6926 5.07662 18.7815 4.86203 18.7815 4.63828C18.7815 4.41453 18.6926 4.19994 18.5344 4.04172C18.3761 3.8835 18.1616 3.79462 17.9378 3.79462H14.5631Z" fill="white"/>
<path d="M21.3124 15.6049C21.4792 15.6049 21.6422 15.5554 21.7808 15.4627C21.9195 15.3701 22.0276 15.2384 22.0914 15.0844C22.1553 14.9303 22.1721 14.7608 22.1397 14.5972C22.1073 14.4337 22.0271 14.2834 21.9093 14.1653L20.222 12.478C20.1443 12.3968 20.0512 12.332 19.9481 12.2873C19.845 12.2426 19.7341 12.2189 19.6217 12.2177C19.5094 12.2165 19.3979 12.2377 19.2939 12.2801C19.1899 12.3225 19.0953 12.3853 19.0159 12.4648C18.9365 12.5442 18.8737 12.6387 18.8313 12.7427C18.7888 12.8468 18.7676 12.9582 18.7688 13.0706C18.7701 13.1829 18.7937 13.2939 18.8384 13.397C18.8831 13.5 18.948 13.5931 19.0291 13.6708L20.7165 15.3581C20.7947 15.4364 20.8876 15.4985 20.9899 15.5409C21.0921 15.5832 21.2017 15.605 21.3124 15.6049Z" fill="white"/>
<path d="M13.9672 12.478C13.8888 12.5563 13.8266 12.6493 13.7841 12.7516C13.7417 12.8539 13.7198 12.9636 13.7198 13.0744C13.7198 13.1852 13.7417 13.2949 13.7841 13.3973C13.8266 13.4996 13.8888 13.5926 13.9672 13.6709L20.7165 20.4202C20.7942 20.5013 20.8873 20.5661 20.9904 20.6108C21.0935 20.6555 21.2044 20.6792 21.3168 20.6804C21.4291 20.6817 21.5406 20.6605 21.6446 20.618C21.7486 20.5756 21.8431 20.5128 21.9226 20.4334C22.002 20.3539 22.0648 20.2594 22.1072 20.1554C22.1497 20.0514 22.1709 19.9399 22.1696 19.8276C22.1684 19.7152 22.1447 19.6043 22.1 19.5012C22.0553 19.3981 21.9905 19.305 21.9093 19.2273L15.16 12.478C15.0818 12.3996 14.9888 12.3374 14.8865 12.2949C14.7841 12.2525 14.6744 12.2307 14.5636 12.2307C14.4528 12.2307 14.3431 12.2525 14.2408 12.2949C14.1385 12.3374 14.0455 12.3996 13.9672 12.478Z" fill="white"/>
<path d="M26.3744 7.16931H4.44011C4.21636 7.16931 4.00177 7.2582 3.84355 7.41642C3.68533 7.57464 3.59645 7.78923 3.59645 8.01298C3.59645 8.23673 3.68533 8.45132 3.84355 8.60953C4.00177 8.76775 4.21636 8.85664 4.44011 8.85664H25.5307V44.2827C25.4743 44.935 25.1896 45.5465 24.7266 46.0095C24.2636 46.4725 23.6521 46.7573 22.9997 46.8137H4.44011C3.78777 46.7573 3.17624 46.4725 2.71324 46.0095C2.25025 45.5465 1.96549 44.935 1.90912 44.2827V40.0644H22.9997C23.2235 40.0644 23.4381 39.9755 23.5963 39.8173C23.7545 39.659 23.8434 39.4444 23.8434 39.2207C23.8434 38.9969 23.7545 38.7824 23.5963 38.6241C23.4381 38.4659 23.2235 38.377 22.9997 38.377H1.06546C0.841709 38.377 0.627119 38.4659 0.468902 38.6241C0.310684 38.7824 0.221802 38.9969 0.221802 39.2207V44.2827C0.27635 45.3838 0.738289 46.4253 1.51786 47.2049C2.29744 47.9845 3.33898 48.4464 4.44011 48.501H22.9997C24.1009 48.4464 25.1424 47.9845 25.922 47.2049C26.7015 46.4253 27.1635 45.3838 27.218 44.2827V8.01298C27.218 7.78923 27.1292 7.57464 26.9709 7.41642C26.8127 7.2582 26.5981 7.16931 26.3744 7.16931Z" fill="white"/>
</g>
<defs>
<clipPath id="clip0_25_376">
<rect width="26.9962" height="48.08" fill="white" transform="translate(0.221802 0.419983)"/>
</clipPath>
</defs>
</svg>
