<svg id="Checkmark" xmlns="http://www.w3.org/2000/svg" width="507" height="376" viewBox="0 0 507 376">
  <defs>
    <style>
      .cls-1 {
        fill: #333644;
      }

      .cls-1, .cls-2 {
        fill-rule: evenodd;
      }

      .cls-2 {
        fill: #c65f63;
      }
    </style>
  </defs>
  <path id="Shape" class="cls-1" d="M362.422,70.715c-5.062,93.786-3.374,188.7-11.811,283.049-84.363,2.247-168.725,1.122-253.088-.563-15.185-.563-30.933-0.563-46.119-1.125-2.812,0-7.311-1.122-10.685-.563,0.562-11.792,0-35.375.562-40.992,2.249-41,5.062-82,7.874-123l2.813-28.078c1.124-18.53,2.812-37.07,3.937-55.034,2.249-25.838,6.186-52.231,7.311-78.065a37.876,37.876,0,0,1,1.125-7.864,1.122,1.122,0,0,0,1.124-.563c9.562-3.369,23.621-1.122,33.745-1.684,82.676-2.247,165.914-1.685,248.026,1.685,9,0.563,8.437-12.914,0-13.476C266.248-1.172,185.26.509,104.272,1.634c-12.936,0-43.306-5.054-52.305,6.742-9,10.673-7.311,40.432-8.437,53.35q-5.062,42.966-8.437,85.925l-2.249,24.713c-3.375,38.188-6.186,77.5-8.436,116.254-1.687,21.34-7.312,47.73-3.938,68.514,2.813,16.845,16.31,14.039,30.933,15.164,102.36,5.054,205.846,3.928,308.206,1.122,5.624,0,9.562-4.494,10.124-10.107,10.123-98.843,16.872-198.248,21.934-297.654q0-6.742-3.375-10.107ZM65.465,17.921"/>
  <path id="Shape-2" data-name="Shape" class="cls-2" d="M388.293,55.55c35.433-17.408,73.115-28.641,112.484-32.013,7.311,0,7.311-10.67,0-10.67-68.615,0-136.1,37.629-192.347,73.571-69.177,44.364-129.357,106.7-173.787,175.783C115.52,224.6,86.275,185.84,51.967,159.446L35.094,147.651a146.01,146.01,0,0,0-28.12-14.039c-5.062-2.247-8.437,5.054-5.062,8.989,9.561,10.666,20.247,20.211,30.933,29.763l16.31,15.16c5.624,5.617,11.248,11.233,16.873,17.975,22.5,26.4,41.056,56.722,53.429,89.3,3.937,10.666,18.559,13.476,24.747,3.362,51.179-83.112,126.544-174.095,218.218-227.444Z"/>
</svg>
